/* XPM */
static char *dummy[]={
"64 64 150 2",
"Qt c None",
"#1 c #35ecd8",
"#2 c #36ebde",
"#0 c #36ecd0",
"#U c #36ecd1",
"#P c #37ebe0",
"#N c #47c9da",
"aa c #598cbb",
".3 c #68a288",
"#d c #68a388",
"#x c #69a08a",
"#j c #69a588",
"#6 c #69f3ce",
".T c #6b9d8d",
".x c #6b9e8d",
".S c #6c9d8e",
".D c #6c9e8d",
".8 c #6caa89",
".E c #6d9d8f",
"#o c #6eac8b",
"#y c #76b291",
"#b c #77661b",
"#O c #785713",
"#Y c #78671c",
"#T c #795011",
"#w c #7a4f10",
"#s c #7a4f11",
"#K c #7a5011",
"#C c #7b4d11",
"#J c #7b4e11",
"#G c #7c4c11",
"#z c #7c4d11",
".K c #7d4c11",
"#g c #7e4c14",
".5 c #7f4c18",
"#S c #7f6e29",
"ac c #82219e",
".U c #824d1d",
".Z c #838137",
".P c #874e2b",
".N c #87be9d",
"#Z c #887b38",
".y c #89c09e",
"#A c #8a4de4",
"#B c #8c4ce7",
".0 c #8c4f38",
"#r c #8dc4a1",
".Y c #94514a",
".H c #94caa7",
"#X c #958f51",
"#v c #969355",
".I c #97cba9",
".L c #995257",
"#R c #9c9c61",
".F c #a0576a",
"ae c #a397af",
"#M c #abb07c",
"#p c #ac5784",
"#V c #ada476",
"#c c #b15891",
"#F c #b1a87e",
"at c #b28ac1",
"as c #b28bc1",
".A c #b57bb4",
".m c #b68cb5",
"#a c #b6dcc2",
".p c #b774b6",
".9 c #b85aa2",
".j c #b871b8",
".J c #b8b48c",
"#Q c #b8b68c",
"#I c #b8bc90",
".e c #ba73b9",
".v c #bb7cbb",
"#f c #bbc598",
".k c #bc68bc",
".c c #bf65be",
".q c #bf8cbf",
"#L c #bfcea1",
".B c #c063bf",
"al c #c19567",
".C c #c1e3ca",
".u c #c262c0",
".g c #c361c2",
".6 c #c45dbf",
".M c #c45fc3",
"#q c #c45fc4",
".O c #c4e4cd",
".V c #c55ec2",
".7 c #c55fc4",
".Q c #c65ec4",
"#l c #c65ec5",
"#t c #c6e6cf",
".d c #c75ec6",
"#m c #c7adc6",
"ad c #c88964",
"#D c #c8d0ac",
"a. c #c9906b",
"af c #caa981",
"#8 c #cb9e79",
"ar c #cc9f7a",
".1 c #ccb9cc",
".4 c #ccdeb9",
"am c #cda884",
"ak c #cfb893",
".w c #d1edd7",
"ao c #d37861",
".f c #d3d0d2",
".z c #d3d2d3",
".X c #d3eed9",
"#7 c #d47861",
"aq c #d4c4a2",
".t c #d5b0d5",
".r c #d5c2d4",
"#n c #d5f0da",
"aj c #d67662",
"ag c #d67762",
"#E c #d6d8e9",
"ap c #d7b498",
".b c #d7b8d7",
".W c #d7cad7",
"#4 c #d87663",
"#9 c #d9d0b1",
".l c #d9e1d9",
"#e c #daf2de",
"#h c #dcd7dc",
"an c #ddd2b7",
"ai c #e0dbc2",
".2 c #e0f4e3",
"#. c #e3e6e3",
".# c #e6eee6",
".a c #e7dfe6",
"ah c #e7f0db",
".R c #eaefe9",
"ab c #ebf1df",
".i c #edf4ed",
".o c #f0f6f0",
".G c #f3f7f3",
"a# c #f4f9ef",
"#u c #f4fbf5",
"#i c #f7fdf8",
".n c #f9fbf9",
"#5 c #f9fcf7",
"#k c #fafdfa",
"#H c #fbfdfa",
".s c #fbfdfb",
"#W c #fdfefc",
"#3 c #fdfffd",
".h c #fefefe",
"## c #fefffe",
"QtQtQtQtQtQtQtQtQtQtQtQtQtQtQtQtQtQtQtQtQtQtQtQtQtQtQtQtQtQtQtQtQtQtQtQtQtQtQtQtQtQtQtQtQtQtQtQtQtQtQtQtQtQtQtQtQtQtQtQtQtQtQtQt",
"QtQtQtQtQtQtQtQtQtQtQtQtQtQtQtQtQtQtQtQtQtQtQtQtQtQtQtQtQtQtQtQtQtQtQtQtQtQtQtQtQtQt.#.aQtQtQtQtQtQtQtQtQtQtQtQtQtQtQtQtQtQtQtQt",
"QtQtQtQtQtQtQtQtQtQtQtQtQtQtQtQtQtQtQtQtQtQtQtQtQtQtQtQtQtQtQtQtQtQtQtQtQtQt.b.c.d.d.eQtQtQtQtQtQtQtQtQtQtQtQtQtQtQtQtQtQtQtQtQt",
"QtQtQtQtQtQtQtQtQtQtQtQtQtQtQtQtQtQtQtQtQtQtQtQtQtQtQtQtQtQtQtQtQtQtQt.f.g.d.d.d.d.d.hQtQtQtQtQtQtQtQtQtQtQtQtQtQtQtQtQtQtQtQtQt",
"QtQtQtQtQtQtQtQtQtQtQtQtQtQtQtQtQtQtQtQtQtQtQtQtQtQtQtQtQtQt.i.j.d.d.d.d.d.d.d.d.d.kQtQtQtQtQtQtQtQtQtQtQtQtQtQtQtQtQtQtQtQtQtQt",
"QtQtQtQtQtQtQtQtQtQtQtQtQtQtQtQtQtQtQtQtQtQtQtQtQtQtQt.l.m.d.d.d.d.d.d.d.d.d.d.d.d.nQtQtQtQtQtQtQtQtQtQtQtQtQtQtQtQtQtQtQtQtQtQt",
"QtQtQtQtQtQtQtQtQtQtQtQtQtQtQtQtQtQtQtQtQtQtQtQt.o.p.d.d.d.d.d.d.d.d.d.d.d.d.d.d.qQtQtQtQtQtQtQtQtQtQtQtQtQtQtQtQtQtQtQtQtQtQtQt",
"QtQtQtQtQtQtQtQtQtQtQtQtQtQtQtQtQtQtQtQt.r.g.d.d.d.d.d.d.d.d.d.d.d.d.d.d.d.d.d.dQtQtQtQtQtQtQtQtQtQtQtQtQtQtQtQtQtQtQtQtQtQtQtQt",
"QtQtQtQtQtQtQtQtQtQtQtQtQtQtQtQt.s.t.u.d.d.d.d.d.d.d.d.d.d.d.d.d.d.d.d.d.d.d.d.vQtQtQtQtQtQt.w.x.yQtQtQtQtQtQtQtQtQtQtQtQtQtQtQt",
"QtQtQtQtQtQtQtQtQtQtQtQt.z.A.d.d.d.d.d.d.d.d.d.d.d.d.d.d.d.d.d.d.d.d.d.d.d.d.BQtQtQtQtQt.C.D.E.E.EQtQtQtQtQtQtQtQtQtQtQtQtQtQtQt",
"QtQtQtQtQtQtQtQtQtQtQt.F.d.d.d.d.d.d.d.d.d.d.d.d.d.d.d.d.d.d.d.d.d.d.d.d.d.d.GQtQtQtQt.H.E.E.E.E.E.IQtQtQtQtQtQtQtQtQtQtQtQtQtQt",
"QtQtQtQtQtQtQtQtQtQtQt.J.K.L.d.d.d.d.d.d.d.d.d.d.d.d.d.d.d.d.d.d.d.d.d.d.d.MQtQtQt.N.E.E.E.E.E.E.E.E.OQtQtQtQtQtQtQtQtQtQtQtQtQt",
"QtQtQtQtQtQtQtQtQtQtQtQt.K.K.P.Q.d.d.d.d.d.d.d.d.d.d.d.d.d.d.d.d.d.d.d.d.d.RQt.h.S.E.E.E.E.E.E.E.E.E.TQtQtQtQtQtQtQtQtQtQtQtQtQt",
"QtQtQtQtQtQtQtQtQtQtQtQt.K.K.K.K.U.V.d.d.d.d.d.d.d.d.d.d.d.d.d.d.d.d.d.d.WQt.E.E.E.E.E.E.E.E.E.E.E.E.E.XQtQtQtQtQtQtQtQtQtQtQtQt",
"QtQtQtQtQtQtQtQtQtQtQtQt.K.K.K.K.K.K.Y.d.d.d.d.d.d.d.d.d.d.d.d.d.d.d.d.dQtQt.E.E.E.E.E.E.E.E.E.E.E.E.E.TQtQtQtQtQtQtQtQtQtQtQtQt",
"QtQtQtQtQtQtQtQtQtQtQtQt.Z.K.K.K.K.K.K.K.0.d.d.d.d.d.d.d.d.d.d.d.d.d.d.1QtQt.2.E.E.E.E.E.E.E.E.E.E.E.E.E.3QtQtQtQtQtQtQtQtQtQtQt",
"QtQtQtQtQtQtQtQtQtQtQtQt.4.K.K.K.K.K.K.K.K.5.6.d.d.d.d.d.d.d.d.d.d.d.7QtQtQtQt.8.E.E.E.E.E.E.E.E.E.E.E.E.EQtQtQtQtQtQtQtQtQtQtQt",
"QtQtQtQtQtQtQtQtQtQtQtQtQt.K.K.K.K.K.K.K.K.K.K.9.d.d.d.d.d.d.d.d.d.d#.QtQtQtQt##.E.E.E.E.E.E.E.E.E.E.E.E.E#aQtQtQtQtQtQtQtQtQtQt",
"QtQtQtQtQtQtQtQtQtQtQtQtQt#b.K.K.K.K.K.K.K.K.K.K.K#c.d.d.d.d.d.d.d.7QtQtQtQtQtQt#d.E.E.E.E.E.E.E.E.E.E.E.E#eQtQtQtQtQtQtQtQtQtQt",
"QtQtQtQtQtQtQtQtQtQtQtQtQt#f.K.K.K.K.K.K.K.K.K.K.K.K#g.d.d.d.d.d.d#hQtQtQtQtQtQt#i.E.E.E.E.E.E.E.E.E.E#j#kQtQtQtQtQtQtQtQtQtQtQt",
"QtQtQtQtQtQtQtQtQtQtQtQtQtQt.K.K.K.K.K.K.K.K.K.K.K.K.K.K.K#l.d.d#mQtQtQtQtQtQtQtQt#n.E.E.E.E.E.E.E#oQtQtQtQtQtQtQtQtQtQtQtQtQtQt",
"QtQtQtQtQtQtQtQtQtQtQtQtQtQt.K.K.K.K.K.K.K.K.K.K.K.K.K.K.K.K#p#qQtQtQtQtQtQtQtQtQtQt.E.E.E.E.E.E#rQtQtQtQtQtQtQtQtQtQtQtQtQtQtQt",
"QtQtQtQtQtQtQtQtQtQtQtQtQtQt#s.K.K.K.K.K.K.K.K.K.K.K.K.K.K.K.KQtQtQtQtQtQtQtQtQtQtQt#t.E.E.E#uQtQtQtQtQtQtQtQtQtQtQtQtQtQtQtQtQt",
"QtQtQtQtQtQtQtQtQtQtQtQtQtQt#v.K.K.K.K.K.K.K.K.K.K.K.K.K.K.K#wQtQtQtQtQtQtQtQtQtQtQtQt#x#yQtQtQtQtQtQtQtQtQtQtQtQtQtQtQtQtQtQtQt",
"QtQtQtQtQtQtQtQtQtQtQtQtQtQtQt.K.K.K.K.K.K.K.K.K.K.K.K.K.K#z#A#B#B#B#B#B#B#B#B#B#B#B#B#B#B#B#B#B#B#B#B#B#BQtQtQtQtQtQtQtQtQtQtQt",
"QtQtQtQtQtQtQtQtQtQtQtQtQtQtQt#C.K.K.K.K.K.K.K.K.K.K.K.K.K#D.h#B#B#B#B#B#B#B#B#B#B#B#B#B#B#B#B#B#B#B#B#B#EQtQtQtQtQtQtQtQtQtQtQt",
"QtQtQtQtQtQtQtQtQtQtQtQtQtQtQt#F.K.K.K.K.K.K.K.K.K.K.K.K#GQtQt.h#A#B#B#B#B#B#B#B#B#B#B#B#B#B#B#B#B#B#BQtQtQtQtQtQtQtQtQtQtQtQtQt",
"QtQtQtQtQtQtQtQtQtQtQtQtQtQtQt#H.K.K.K.K.K.K.K.K.K.K.K.K#IQtQtQt.h#A#B#B#B#B#B#B#B#B#B#B#B#B#B#B#B#B#EQtQtQtQtQtQtQtQtQtQtQtQtQt",
"QtQtQtQtQtQtQtQtQtQtQtQtQtQtQtQt.K.K.K.K.K.K.K.K.K.K.K#JQtQtQtQtQt.h#B#B#B#B#B#B#B#B#B#B#B#B#B#B#B#EQtQtQtQtQtQtQtQtQtQtQtQtQtQt",
"QtQtQtQtQtQtQtQtQtQtQtQtQtQtQtQt.K.K.K.K.K.K.K.K.K.K.KQtQtQtQtQtQtQt.h#A#B#B#B#B#B#B#B#B#B#B#B#B#EQtQtQtQtQtQtQtQtQtQtQtQtQtQtQt",
"QtQtQtQtQtQtQtQtQtQtQtQtQtQtQtQt#K.K.K.K.K.K.K.K.K.K#JQtQtQtQtQtQtQtQt.h#B#B#B#B#B#B#B#B#B#B#B#EQtQtQtQtQtQtQtQtQtQtQtQtQtQtQtQt",
"QtQtQtQtQtQtQtQtQtQtQtQtQtQtQtQt#L.K.K.K.K.K.K.K.K.KQtQtQtQtQtQtQtQtQtQt.h#A#B#B#B#B#B#B#B#BQtQtQtQtQtQtQtQtQtQtQtQtQtQtQtQtQtQt",
"QtQtQtQtQtQtQtQtQtQtQtQtQtQtQtQtQt.K.K.K.K.K.K.K.K#MQtQtQtQtQtQtQtQtQtQtQt.h#B#B#B#B#B#B#B#NQtQtQtQtQtQtQtQtQtQtQtQtQtQtQtQtQtQt",
"QtQtQtQtQtQtQtQtQtQtQtQtQtQtQtQtQt#O.K.K.K.K.K.K.KQtQtQtQtQtQtQtQtQtQtQtQtQt.h#A#B#B#B#B#P#PQtQtQtQtQtQtQtQtQtQtQtQtQtQtQtQtQtQt",
"QtQtQtQtQtQtQtQtQtQtQtQtQtQtQtQtQt#Q.K.K.K.K.K.K#RQtQtQtQtQtQtQtQtQtQtQtQtQtQt.h#B#B#B#N#P#PQtQtQtQtQtQtQtQtQtQtQtQtQtQtQtQtQtQt",
"QtQtQtQtQtQtQtQtQtQtQtQtQtQtQtQtQtQt.K.K.K.K.K#SQtQtQtQtQtQtQtQtQtQtQtQtQtQtQtQt.h#A#P#P#P#PQtQtQtQtQtQtQtQtQtQtQtQtQtQtQtQtQtQt",
"QtQtQtQtQtQtQtQtQtQtQtQtQtQtQtQtQtQt#T.K.K.K.KQtQtQtQtQtQtQtQtQtQtQtQtQtQtQtQtQtQt#U#P#P#P#PQtQtQtQtQtQtQtQtQtQtQtQtQtQtQtQtQtQt",
"QtQtQtQtQtQtQtQtQtQtQtQtQtQtQtQtQtQt#V.K.K.K#GQtQtQtQtQtQtQtQtQtQtQtQtQtQtQtQtQt#U#P#P#P#P#PQtQtQtQtQtQtQtQtQtQtQtQtQtQtQtQtQtQt",
"QtQtQtQtQtQtQtQtQtQtQtQtQtQtQtQtQtQtQt.K.K.K#WQtQtQtQtQtQtQtQtQtQtQtQtQtQtQtQt#U#P#P#P#P#P#PQtQtQtQtQtQtQtQtQtQtQtQtQtQtQtQtQtQt",
"QtQtQtQtQtQtQtQtQtQtQtQtQtQtQtQtQtQtQt.K.K#XQtQtQtQtQtQtQtQtQtQtQtQtQtQtQtQt#U#P#P#P#P#P#P#PQtQtQtQtQtQtQtQtQtQtQtQtQtQtQtQtQtQt",
"QtQtQtQtQtQtQtQtQtQtQtQtQtQtQtQtQtQtQt.K.KQtQtQtQtQtQtQtQtQtQtQtQtQtQtQtQt#U#P#P#P#P#P#P#P#PQtQtQtQtQtQtQtQtQtQtQtQtQtQtQtQtQtQt",
"QtQtQtQtQtQtQtQtQtQtQtQtQtQtQtQtQtQtQt#Y#ZQtQtQtQtQtQtQtQtQtQtQtQtQtQtQt#U#P#P#P#P#P#P#P#P#PQtQtQtQtQtQtQtQtQtQtQtQtQtQtQtQtQtQt",
"QtQtQtQtQtQtQtQtQtQtQtQtQtQtQtQtQtQtQtQtQtQtQtQtQtQtQtQtQtQtQtQtQtQtQt#U#P#P#P#P#P#P#P#P#P#PQtQtQtQtQtQtQtQtQtQtQtQtQtQtQtQtQtQt",
"QtQtQtQtQtQtQtQtQtQtQtQtQtQtQtQtQtQtQtQtQtQtQtQtQtQtQtQtQtQtQtQtQtQt#0#P#P#P#P#P#P#P#P#P#P#PQtQtQtQtQtQtQtQtQtQtQtQtQtQtQtQtQtQt",
"QtQtQtQtQtQtQtQtQtQtQtQtQtQtQtQtQtQtQtQtQtQtQtQtQtQtQtQtQtQtQtQtQtQt#1#P#P#P#P#P#P#P#P#P#2#3QtQtQtQtQtQtQtQtQtQtQtQtQtQtQtQtQtQt",
"QtQtQtQtQtQtQtQtQtQtQtQtQtQtQtQtQtQtQtQtQtQtQtQtQtQtQtQtQtQtQtQtQtQt#1#P#P#P#P#P#P#P#P#P#3QtQtQtQtQtQtQtQtQtQtQtQtQtQtQtQtQtQtQt",
"QtQtQtQtQtQtQtQtQtQtQtQtQtQtQtQtQtQtQtQtQtQtQtQtQtQtQtQtQtQtQtQtQtQt#1#P#P#P#P#P#P#P#2#3QtQtQtQtQtQtQtQtQtQtQtQtQtQtQtQtQtQtQtQt",
"QtQtQtQtQtQtQtQtQtQtQtQtQtQtQtQtQtQtQtQtQtQtQtQtQtQtQtQtQtQtQtQtQtQt#1#P#P#P#P#P#P#P#3#4#5QtQtQtQtQtQtQtQtQtQtQtQtQtQtQtQtQtQtQt",
"QtQtQtQtQtQtQtQtQtQtQtQtQtQtQtQtQtQtQtQtQtQtQtQtQtQtQtQtQtQtQtQtQtQt#1#P#P#P#P#P#P#6Qt#7#4#8QtQtQtQtQtQtQtQtQtQtQtQtQtQtQtQtQtQt",
"QtQtQtQtQtQtQtQtQtQtQtQtQtQtQtQtQtQtQtQtQtQtQtQtQtQtQtQtQtQtQtQtQtQt#1#P#P#P#P#P#3QtQt#9#4#4#4a.QtQtQtQtQtQtQtQtQtQtQtQtQtQtQtQt",
"QtQtQtQtQtQtQtQtQtQtQtQtQtQtQtQtQtQtQtQtQtQtQtQtQtQtQtQtQtQtQtQtQtQt#1#P#P#P#P#6QtQtQtQt#4#4#4#4#4a#QtQtQtQtQtQtQtQtQtQtQtQtQtQt",
"QtQtQtQtQtQtQtQtQtQtQtQtQtQtQtQtQtQtQtQtQtQtQtQtQtQtQtQtQtQtQtQtQtQtaa#P#P#P#3QtQtQtQtQt#4#4#4#4#4#4#4abQtQtQtQtQtQtQtQtQtQtQtQt",
"QtQtQtQtQtQtQtQtQtQtQtQtQtQtQtQtQtQtQtQtQtQtQtQtQtQtQtQtQtQtQtQtQtQtac#P#P#6QtQtQtQtQtQt#4#4#4#4#4#4#4#4adQtQtQtQtQtQtQtQtQtQtQt",
"QtQtQtQtQtQtQtQtQtQtQtQtQtQtQtQtQtQtQtQtQtQtQtQtQtQtQtQtQtQtQtQtaeacac#P#3QtQtQtQtQtQtQtaf#4#4#4#4#4#4#4agQtQtQtQtQtQtQtQtQtQtQt",
"QtQtQtQtQtQtQtQtQtQtQtQtQtQtQtQtQtQtQtQtQtQtQtQtQtQtQtQtQtQtQtaeacacac#6QtQtQtQtQtQtQtQtah#4#4#4#4#4#4#4aiQtQtQtQtQtQtQtQtQtQtQt",
"QtQtQtQtQtQtQtQtQtQtQtQtQtQtQtQtQtQtQtQtQtQtQtQtQtQtQtQtQtQtaeacacacacQtQtQtQtQtQtQtQtQtQtaj#4#4#4#4#4akQtQtQtQtQtQtQtQtQtQtQtQt",
"QtQtQtQtQtQtQtQtQtQtQtQtQtQtQtQtQtQtQtQtQtQtQtQtQtQtQtQtQtaeacacacacacQtQtQtQtQtQtQtQtQtQtal#4#4#4#4#4QtQtQtQtQtQtQtQtQtQtQtQtQt",
"QtQtQtQtQtQtQtQtQtQtQtQtQtQtQtQtQtQtQtQtQtQtQtQtQtQtQtQtaeacacacacacacQtQtQtQtQtQtQtQtQtQt#5#4#4#4#4amQtQtQtQtQtQtQtQtQtQtQtQtQt",
"QtQtQtQtQtQtQtQtQtQtQtQtQtQtQtQtQtQtQtQtQtQtQtQtQtQtQtaeacacacacacacacQtQtQtQtQtQtQtQtQtQtQt#4#4#4ajQtQtQtQtQtQtQtQtQtQtQtQtQtQt",
"QtQtQtQtQtQtQtQtQtQtQtQtQtQtQtQtQtQtQtQtQtQtQtQtQtQtQtacacacacacacacacQtQtQtQtQtQtQtQtQtQtQt#4#4#4anQtQtQtQtQtQtQtQtQtQtQtQtQtQt",
"QtQtQtQtQtQtQtQtQtQtQtQtQtQtQtQtQtQtQtQtQtQtQtQtQtaeacacacacacacacacacQtQtQtQtQtQtQtQtQtQtQtao#4#4QtQtQtQtQtQtQtQtQtQtQtQtQtQtQt",
"QtQtQtQtQtQtQtQtQtQtQtQtQtQtQtQtQtQtQtQtQtQtQtQtQtacacacacacacacacacacQtQtQtQtQtQtQtQtQtQtQtap#4aqQtQtQtQtQtQtQtQtQtQtQtQtQtQtQt",
"QtQtQtQtQtQtQtQtQtQtQtQtQtQtQtQtQtQtQtQtQtQtQtaeacacacacacacacacacacacQtQtQtQtQtQtQtQtQtQtQtQtarQtQtQtQtQtQtQtQtQtQtQtQtQtQtQtQt",
"QtQtQtQtQtQtQtQtQtQtQtQtQtQtQtQtQtQtQtQtQtQtQtasasasasasasasasasasasatQtQtQtQtQtQtQtQtQtQtQtQtQtQtQtQtQtQtQtQtQtQtQtQtQtQtQtQtQt"};
