/* XPM */
static char *dummy[]={
"48 48 97 2",
"Qt c None",
"#k c #36ebde",
"#g c #36ecd1",
"#e c #37ebe0",
"#c c #47c9da",
".J c #68a288",
".1 c #69a08a",
".T c #69a588",
"#o c #69f3ce",
".m c #6b9e8d",
".B c #6c9d8e",
".r c #6c9e8d",
".M c #6caa89",
".s c #6d9d8f",
".Y c #6eac8b",
".2 c #76b291",
"#d c #785713",
"#i c #78671c",
".5 c #7b4d11",
"## c #7b4e11",
".3 c #7c4d11",
".u c #7d4c11",
".L c #7f4c18",
"#f c #7f6e29",
"#w c #82219e",
".C c #824d1d",
".G c #838137",
".x c #87be9d",
"#j c #887b38",
".n c #89c09e",
"#. c #8a4de4",
".4 c #8c4ce7",
".H c #8c4f38",
".0 c #8dc4a1",
"#h c #958f51",
".v c #995257",
"#v c #a397af",
"#b c #abb07c",
"#E c #b28bc1",
".p c #b57bb4",
".g c #b68cb5",
".P c #b6dcc2",
".N c #b85aa2",
".d c #b871b8",
".t c #b8b48c",
".9 c #b8bc90",
".l c #bb7cbb",
".Q c #bbc598",
".e c #bc68bc",
"#a c #bfcea1",
"#B c #c19567",
".q c #c1e3ca",
".b c #c361c2",
".w c #c45fc3",
".Z c #c45fc4",
".D c #c55ec2",
".y c #c65ec4",
".V c #c65ec5",
".c c #c75ec6",
".W c #c7adc6",
"#u c #c88964",
".6 c #c8d0ac",
"#s c #c9906b",
"#x c #caa981",
"#q c #cb9e79",
".I c #ccb9cc",
".K c #ccdeb9",
"#A c #cfb893",
".a c #d3d0d2",
".o c #d3d2d3",
".F c #d3eed9",
"#p c #d47861",
"#D c #d4c4a2",
".k c #d5b0d5",
".i c #d5c2d4",
".X c #d5f0da",
"#z c #d67662",
"#y c #d67762",
".7 c #d6d8e9",
".E c #d7cad7",
"#m c #d87663",
"#r c #d9d0b1",
".f c #d9e1d9",
".R c #dcd7dc",
"#C c #ddd2b7",
".# c #e7dfe6",
".z c #eaefe9",
"#t c #ebf1df",
".S c #f7fdf8",
".h c #f9fbf9",
"#n c #f9fcf7",
".U c #fafdfa",
".8 c #fbfdfa",
".j c #fbfdfb",
"#l c #fdfffd",
".A c #fefefe",
".O c #fefffe",
"QtQtQtQtQtQtQtQtQtQtQtQtQtQtQtQtQtQtQtQtQtQtQtQtQtQtQtQtQtQtQtQtQtQtQtQtQtQtQtQtQtQtQtQtQtQtQtQt",
"QtQtQtQtQtQtQtQtQtQtQtQtQtQtQtQtQtQtQtQtQtQtQtQtQtQtQtQtQtQtQtQt.#QtQtQtQtQtQtQtQtQtQtQtQtQtQtQt",
"QtQtQtQtQtQtQtQtQtQtQtQtQtQtQtQtQtQtQtQtQtQtQtQtQtQt.a.b.c.c.c.cQtQtQtQtQtQtQtQtQtQtQtQtQtQtQtQt",
"QtQtQtQtQtQtQtQtQtQtQtQtQtQtQtQtQtQtQtQtQtQtQt.d.c.c.c.c.c.c.c.eQtQtQtQtQtQtQtQtQtQtQtQtQtQtQtQt",
"QtQtQtQtQtQtQtQtQtQtQtQtQtQtQtQtQtQtQtQt.f.g.c.c.c.c.c.c.c.c.c.hQtQtQtQtQtQtQtQtQtQtQtQtQtQtQtQt",
"QtQtQtQtQtQtQtQtQtQtQtQtQtQtQt.i.b.c.c.c.c.c.c.c.c.c.c.c.c.cQtQtQtQtQtQtQtQtQtQtQtQtQtQtQtQtQtQt",
"QtQtQtQtQtQtQtQtQtQtQtQt.j.k.c.c.c.c.c.c.c.c.c.c.c.c.c.c.c.lQtQtQtQtQt.m.nQtQtQtQtQtQtQtQtQtQtQt",
"QtQtQtQtQtQtQtQtQt.o.p.c.c.c.c.c.c.c.c.c.c.c.c.c.c.c.c.c.cQtQtQtQt.q.r.s.sQtQtQtQtQtQtQtQtQtQtQt",
"QtQtQtQtQtQtQtQt.t.u.v.c.c.c.c.c.c.c.c.c.c.c.c.c.c.c.c.c.wQtQt.x.s.s.s.s.s.sQtQtQtQtQtQtQtQtQtQt",
"QtQtQtQtQtQtQtQtQt.u.u.y.c.c.c.c.c.c.c.c.c.c.c.c.c.c.c.c.z.A.B.s.s.s.s.s.s.sQtQtQtQtQtQtQtQtQtQt",
"QtQtQtQtQtQtQtQtQt.u.u.u.C.D.c.c.c.c.c.c.c.c.c.c.c.c.c.EQt.s.s.s.s.s.s.s.s.s.FQtQtQtQtQtQtQtQtQt",
"QtQtQtQtQtQtQtQtQt.G.u.u.u.u.u.H.c.c.c.c.c.c.c.c.c.c.IQtQt.s.s.s.s.s.s.s.s.s.s.JQtQtQtQtQtQtQtQt",
"QtQtQtQtQtQtQtQtQt.K.u.u.u.u.u.u.L.c.c.c.c.c.c.c.c.cQtQtQt.M.s.s.s.s.s.s.s.s.s.sQtQtQtQtQtQtQtQt",
"QtQtQtQtQtQtQtQtQtQt.u.u.u.u.u.u.u.N.c.c.c.c.c.c.c.cQtQtQt.O.s.s.s.s.s.s.s.s.s.s.PQtQtQtQtQtQtQt",
"QtQtQtQtQtQtQtQtQtQt.Q.u.u.u.u.u.u.u.u.u.c.c.c.c.c.RQtQtQtQt.S.s.s.s.s.s.s.s.T.UQtQtQtQtQtQtQtQt",
"QtQtQtQtQtQtQtQtQtQtQt.u.u.u.u.u.u.u.u.u.u.u.V.c.WQtQtQtQtQtQt.X.s.s.s.s.s.YQtQtQtQtQtQtQtQtQtQt",
"QtQtQtQtQtQtQtQtQtQtQt.u.u.u.u.u.u.u.u.u.u.u.u.ZQtQtQtQtQtQtQtQt.s.s.s.s.0QtQtQtQtQtQtQtQtQtQtQt",
"QtQtQtQtQtQtQtQtQtQtQt.u.u.u.u.u.u.u.u.u.u.u.uQtQtQtQtQtQtQtQtQt.1.2QtQtQtQtQtQtQtQtQtQtQtQtQtQt",
"QtQtQtQtQtQtQtQtQtQtQt.u.u.u.u.u.u.u.u.u.u.u.3.4.4.4.4.4.4.4.4.4.4.4.4.4.4.4.4.4QtQtQtQtQtQtQtQt",
"QtQtQtQtQtQtQtQtQtQtQt.5.u.u.u.u.u.u.u.u.u.u.6.4.4.4.4.4.4.4.4.4.4.4.4.4.4.4.4.7QtQtQtQtQtQtQtQt",
"QtQtQtQtQtQtQtQtQtQtQt.8.u.u.u.u.u.u.u.u.u.9QtQt.A#..4.4.4.4.4.4.4.4.4.4.4.4QtQtQtQtQtQtQtQtQtQt",
"QtQtQtQtQtQtQtQtQtQtQtQt.u.u.u.u.u.u.u.u##QtQtQtQt.A.4.4.4.4.4.4.4.4.4.4.4.7QtQtQtQtQtQtQtQtQtQt",
"QtQtQtQtQtQtQtQtQtQtQtQt.u.u.u.u.u.u.u.uQtQtQtQtQtQt#..4.4.4.4.4.4.4.4.4.7QtQtQtQtQtQtQtQtQtQtQt",
"QtQtQtQtQtQtQtQtQtQtQtQt#a.u.u.u.u.u.u.uQtQtQtQtQtQtQt.A#..4.4.4.4.4.4QtQtQtQtQtQtQtQtQtQtQtQtQt",
"QtQtQtQtQtQtQtQtQtQtQtQtQt.u.u.u.u.u.u#bQtQtQtQtQtQtQtQt.A.4.4.4.4.4#cQtQtQtQtQtQtQtQtQtQtQtQtQt",
"QtQtQtQtQtQtQtQtQtQtQtQtQt#d.u.u.u.u.uQtQtQtQtQtQtQtQtQtQt#..4.4.4#e#eQtQtQtQtQtQtQtQtQtQtQtQtQt",
"QtQtQtQtQtQtQtQtQtQtQtQtQtQt.u.u.u#fQtQtQtQtQtQtQtQtQtQtQtQt.A#.#e#e#eQtQtQtQtQtQtQtQtQtQtQtQtQt",
"QtQtQtQtQtQtQtQtQtQtQtQtQtQt.u.u.uQtQtQtQtQtQtQtQtQtQtQtQtQtQt#g#e#e#eQtQtQtQtQtQtQtQtQtQtQtQtQt",
"QtQtQtQtQtQtQtQtQtQtQtQtQtQt.u.u.uQtQtQtQtQtQtQtQtQtQtQtQtQt#g#e#e#e#eQtQtQtQtQtQtQtQtQtQtQtQtQt",
"QtQtQtQtQtQtQtQtQtQtQtQtQtQt.u.u#hQtQtQtQtQtQtQtQtQtQtQtQt#e#e#e#e#e#eQtQtQtQtQtQtQtQtQtQtQtQtQt",
"QtQtQtQtQtQtQtQtQtQtQtQtQtQt.u.uQtQtQtQtQtQtQtQtQtQtQtQt#g#e#e#e#e#e#eQtQtQtQtQtQtQtQtQtQtQtQtQt",
"QtQtQtQtQtQtQtQtQtQtQtQtQtQt#i#jQtQtQtQtQtQtQtQtQtQtQt#g#e#e#e#e#e#e#eQtQtQtQtQtQtQtQtQtQtQtQtQt",
"QtQtQtQtQtQtQtQtQtQtQtQtQtQtQtQtQtQtQtQtQtQtQtQtQtQt#e#e#e#e#e#e#e#e#eQtQtQtQtQtQtQtQtQtQtQtQtQt",
"QtQtQtQtQtQtQtQtQtQtQtQtQtQtQtQtQtQtQtQtQtQtQtQtQtQt#e#e#e#e#e#e#e#k#lQtQtQtQtQtQtQtQtQtQtQtQtQt",
"QtQtQtQtQtQtQtQtQtQtQtQtQtQtQtQtQtQtQtQtQtQtQtQtQtQt#e#e#e#e#e#e#e#lQtQtQtQtQtQtQtQtQtQtQtQtQtQt",
"QtQtQtQtQtQtQtQtQtQtQtQtQtQtQtQtQtQtQtQtQtQtQtQtQtQt#e#e#e#e#e#e#m#nQtQtQtQtQtQtQtQtQtQtQtQtQtQt",
"QtQtQtQtQtQtQtQtQtQtQtQtQtQtQtQtQtQtQtQtQtQtQtQtQtQt#e#e#e#e#e#o#p#m#qQtQtQtQtQtQtQtQtQtQtQtQtQt",
"QtQtQtQtQtQtQtQtQtQtQtQtQtQtQtQtQtQtQtQtQtQtQtQtQtQt#e#e#e#e#lQt#r#m#m#sQtQtQtQtQtQtQtQtQtQtQtQt",
"QtQtQtQtQtQtQtQtQtQtQtQtQtQtQtQtQtQtQtQtQtQtQtQtQtQt#e#e#eQtQtQtQt#m#m#m#m#m#tQtQtQtQtQtQtQtQtQt",
"QtQtQtQtQtQtQtQtQtQtQtQtQtQtQtQtQtQtQtQtQtQtQtQtQtQt#e#e#oQtQtQtQt#m#m#m#m#m#m#uQtQtQtQtQtQtQtQt",
"QtQtQtQtQtQtQtQtQtQtQtQtQtQtQtQtQtQtQtQtQtQtQtQt#v#w#e#lQtQtQtQtQt#x#m#m#m#m#m#yQtQtQtQtQtQtQtQt",
"QtQtQtQtQtQtQtQtQtQtQtQtQtQtQtQtQtQtQtQtQtQtQt#w#w#wQtQtQtQtQtQtQtQt#z#m#m#m#AQtQtQtQtQtQtQtQtQt",
"QtQtQtQtQtQtQtQtQtQtQtQtQtQtQtQtQtQtQtQtQtQt#v#w#w#wQtQtQtQtQtQtQtQt#B#m#m#mQtQtQtQtQtQtQtQtQtQt",
"QtQtQtQtQtQtQtQtQtQtQtQtQtQtQtQtQtQtQtQtQt#v#w#w#w#wQtQtQtQtQtQtQtQt#n#m#m#mQtQtQtQtQtQtQtQtQtQt",
"QtQtQtQtQtQtQtQtQtQtQtQtQtQtQtQtQtQtQtQt#w#w#w#w#w#wQtQtQtQtQtQtQtQtQt#m#m#CQtQtQtQtQtQtQtQtQtQt",
"QtQtQtQtQtQtQtQtQtQtQtQtQtQtQtQtQtQtQt#v#w#w#w#w#w#wQtQtQtQtQtQtQtQtQt#m#mQtQtQtQtQtQtQtQtQtQtQt",
"QtQtQtQtQtQtQtQtQtQtQtQtQtQtQtQtQtQtQt#w#w#w#w#w#w#wQtQtQtQtQtQtQtQtQt#m#DQtQtQtQtQtQtQtQtQtQtQt",
"QtQtQtQtQtQtQtQtQtQtQtQtQtQtQtQtQt#E#E#E#E#E#E#E#E#EQtQtQtQtQtQtQtQtQtQtQtQtQtQtQtQtQtQtQtQtQtQt"};
